<svg width="16" height="20" viewBox="0 0 16 20" fill="none" xmlns="http://www.w3.org/2000/svg">
<path fill-rule="evenodd" clip-rule="evenodd" d="M5 0C4.44772 0 4 0.447715 4 1H2C0.895431 1 0 1.89543 0 3V18C0 19.1046 0.895431 20 2 20H14C15.1046 20 16 19.1046 16 18V3C16 1.89543 15.1046 1 14 1H12C12 0.447715 11.5523 0 11 0H5ZM6 2H10V4H11C11.5523 4 12 4.44772 12 5C12 5.55228 11.5523 6 11 6H5C4.44772 6 4 5.55228 4 5C4 4.44772 4.44772 4 5 4H6V2ZM11.7071 10.7071C12.0976 10.3166 12.0976 9.68342 11.7071 9.29289C11.3166 8.90237 10.6834 8.90237 10.2929 9.29289L7 12.5858L5.70711 11.2929C5.31658 10.9024 4.68342 10.9024 4.29289 11.2929C3.90237 11.6834 3.90237 12.3166 4.29289 12.7071L6.29289 14.7071C6.68342 15.0976 7.31658 15.0976 7.70711 14.7071L11.7071 10.7071Z" fill="#A41C30"/>
</svg>
