<svg width="20" height="20" viewBox="0 0 20 20" fill="none" xmlns="http://www.w3.org/2000/svg">
<path fill-rule="evenodd" clip-rule="evenodd" d="M9.21433 0.325437C9.64824 -0.108479 10.3518 -0.108479 10.7857 0.325437L17.4523 6.9921L19.6746 9.21433C20.1085 9.64824 20.1085 10.3518 19.6746 10.7857C19.2406 11.2196 18.5371 11.2196 18.1032 10.7857L17.7778 10.4602V17.7778C17.7778 19.0051 16.7829 20 15.5556 20H12.2222C11.6086 20 11.1111 19.5025 11.1111 18.8889V15.5556H8.88889V18.8889C8.88889 19.5025 8.39143 20 7.77778 20H4.44444C3.21714 20 2.22222 19.0051 2.22222 17.7778V10.4602L1.89679 10.7857C1.46287 11.2196 0.759353 11.2196 0.325437 10.7857C-0.108479 10.3518 -0.108479 9.64824 0.325437 9.21433L2.54766 6.9921L9.21433 0.325437Z" fill="#A41C30"/>
</svg>
