<svg width="19" height="22" viewBox="0 0 19 22" fill="none" xmlns="http://www.w3.org/2000/svg">
<path fill-rule="evenodd" clip-rule="evenodd" d="M4.18161 1.44891C5.86955 0.323613 8.08672 1.35526 8.41556 3.25001H11.707C13.2258 3.25001 14.457 4.48123 14.457 6.00001C14.457 6.41423 14.1212 6.75001 13.707 6.75001C13.2928 6.75001 12.957 6.41423 12.957 6.00001C12.957 5.30966 12.3974 4.75001 11.707 4.75001H8.45703V17.25H11.707C12.3974 17.25 12.957 16.6904 12.957 16C12.957 15.5858 13.2928 15.25 13.707 15.25C14.1212 15.25 14.457 15.5858 14.457 16C14.457 17.5188 13.2258 18.75 11.707 18.75H8.41556C8.08672 20.6448 5.86955 21.6764 4.18161 20.5511L2.18161 19.2178C1.41656 18.7078 0.957031 17.8491 0.957031 16.9296V5.07038C0.957031 4.15091 1.41656 3.29227 2.18161 2.78224L4.18161 1.44891ZM15.1767 13.264C14.8838 12.9711 14.8838 12.4962 15.1767 12.2033L15.8964 11.4836L10.707 11.4836C10.2928 11.4836 9.95703 11.1479 9.95703 10.7336C9.95703 10.3194 10.2928 9.98364 10.707 9.98364L15.8964 9.98364L15.1767 9.26397C14.8838 8.97108 14.8838 8.49621 15.1767 8.20331C15.4696 7.91042 15.9445 7.91042 16.2374 8.20331L17.5303 9.49621C18.2137 10.1796 18.2137 11.2877 17.5303 11.9711L16.2374 13.264C15.9445 13.5569 15.4696 13.5569 15.1767 13.264Z" fill="#A41C30"/>
</svg>
