<svg width="56" height="56" viewBox="0 0 56 56" fill="none" xmlns="http://www.w3.org/2000/svg">
<path d="M21.9106 15.8187L10.1037 16.8244L3.8712 23.0554C3.48158 23.4412 3.20763 23.9283 3.08032 24.4616C2.95302 24.995 2.97743 25.5533 3.1508 26.0735C3.32416 26.5938 3.63958 27.0551 4.06137 27.4054C4.48317 27.7557 4.99454 27.9809 5.53765 28.0557L13.9699 29.0447M40.186 34.0979L39.1806 45.9071L32.9508 52.1409C32.5646 52.5265 32.0787 52.797 31.5474 52.9219C31.0162 53.0469 30.4607 53.0214 29.9431 52.8484C29.4255 52.6754 28.9663 52.3616 28.617 51.9422C28.2677 51.5229 28.042 51.0145 27.9653 50.4741L26.7183 42.1873M52.2344 7.2681C52.0873 6.39317 51.6712 5.58587 51.044 4.95852C50.4168 4.33117 49.6096 3.91497 48.7349 3.76784C43.6855 2.89833 33.4035 1.82325 28.7958 6.4347C23.5742 11.6601 12.5118 31.481 9.07609 37.7565C8.77211 38.3119 8.65728 38.9513 8.74899 39.5778C8.84069 40.2044 9.13394 40.784 9.58435 41.2289L12.1729 43.8375L14.7754 46.4377C15.2202 46.8882 15.7997 47.1815 16.4262 47.2732C17.0526 47.3649 17.6918 47.2501 18.2471 46.946C24.5213 43.5041 44.3382 32.4394 49.5626 27.2224C54.1731 22.6026 53.1038 12.3185 52.2344 7.2681ZM42.9801 18.8995C42.9801 22.1444 40.3501 24.7749 37.1058 24.7749C33.8616 24.7749 31.2316 22.1444 31.2316 18.8995C31.2316 15.6546 33.8616 13.0241 37.1058 13.0241C40.3501 13.0241 42.9801 15.6546 42.9801 18.8995Z" stroke="#A41C30" stroke-width="5" stroke-linecap="round" stroke-linejoin="round"/>
</svg>
