<svg width="52" height="47" viewBox="0 0 52 47" fill="none" xmlns="http://www.w3.org/2000/svg">
<path d="M25.0833 3.10395C25.4322 2.30322 26.5679 2.30322 26.9168 3.10395L32.5486 16.0289C32.6965 16.3683 33.0198 16.5983 33.389 16.6265L47.9206 17.7385C48.8203 17.8074 49.1759 18.9386 48.4773 19.5098L37.4756 28.5055C37.176 28.7506 37.0446 29.1465 37.1385 29.5221L40.5116 43.0201C40.7261 43.8785 39.8021 44.572 39.0377 44.1264L26.5037 36.8187C26.1925 36.6372 25.8076 36.6372 25.4964 36.8187L12.9624 44.1264C12.198 44.572 11.274 43.8785 11.4885 43.0201L14.8616 29.5221C14.9555 29.1465 14.8241 28.7506 14.5244 28.5055L3.52276 19.5098C2.82422 18.9386 3.17976 17.8074 4.07946 17.7385L18.6111 16.6265C18.9803 16.5983 19.3036 16.3683 19.4515 16.0289L25.0833 3.10395Z" stroke="#A41C30" stroke-width="5"/>
</svg>
