<svg width="21" height="20" viewBox="0 0 21 20" fill="none" xmlns="http://www.w3.org/2000/svg">
<path fill-rule="evenodd" clip-rule="evenodd" d="M5.5 1C5.5 0.447715 6.05964 0 6.75 0H14.25C14.9404 0 15.5 0.447715 15.5 1H18C19.3807 1 20.5 1.89543 20.5 3V18C20.5 19.1046 19.3807 20 18 20H3C1.61929 20 0.5 19.1046 0.5 18V3C0.5 1.89543 1.61929 1 3 1H5.5ZM13 2H8V4H6.75C6.05964 4 5.5 4.44772 5.5 5C5.5 5.55228 6.05964 6 6.75 6H14.25C14.9404 6 15.5 5.55228 15.5 5C15.5 4.44772 14.9404 4 14.25 4H13V2ZM5.5 10C5.5 9.44771 6.05964 9 6.75 9H14.25C14.9404 9 15.5 9.44771 15.5 10C15.5 10.5523 14.9404 11 14.25 11H6.75C6.05964 11 5.5 10.5523 5.5 10ZM6.75 13C6.05964 13 5.5 13.4477 5.5 14C5.5 14.5523 6.05964 15 6.75 15H14.25C14.9404 15 15.5 14.5523 15.5 14C15.5 13.4477 14.9404 13 14.25 13H6.75Z" fill="#A41C30"/>
</svg>
